<?xml version="1.0" encoding="UTF-8" standalone="no"?>
<!DOCTYPE svg PUBLIC "-//W3C//DTD SVG 1.1//EN" "http://www.w3.org/Graphics/SVG/1.1/DTD/svg11.dtd">
<svg width="100%" height="100%" viewBox="0 0 441 61" version="1.1" xmlns="http://www.w3.org/2000/svg" xmlns:xlink="http://www.w3.org/1999/xlink" xml:space="preserve" xmlns:serif="http://www.serif.com/" style="fill-rule:evenodd;clip-rule:evenodd;stroke-linejoin:round;stroke-miterlimit:2;">
    <g id="Grupo_4" transform="matrix(1,0,0,1,-683.064,-205.251)">
        <g id="Trazado_1" transform="matrix(1,0,0,1,172,884.502)">
            <path d="M678.3,-672.015C678.178,-672.023 678.055,-672.026 677.932,-672.026C674.677,-672.026 671.997,-669.347 671.997,-666.091C671.997,-666.033 671.998,-665.974 672,-665.915C672,-662.315 674.5,-659.815 678.3,-659.815C682.1,-659.815 684.8,-662.315 684.8,-665.915C684.8,-669.515 682.1,-672.015 678.3,-672.015Z" style="fill:rgb(51,149,255);fill-rule:nonzero;"/>
        </g>
        <g id="Trazado_2" transform="matrix(1,0,0,1,172,884.502)">
            <path d="M673.1,-658.015L683.6,-658.015C683.61,-658.016 683.619,-658.016 683.629,-658.016C683.888,-658.016 684.101,-657.803 684.101,-657.544C684.101,-657.534 684.101,-657.525 684.1,-657.515L684.1,-627.115C684.101,-627.105 684.101,-627.096 684.101,-627.086C684.101,-626.827 683.888,-626.614 683.629,-626.614C683.619,-626.614 683.61,-626.614 683.6,-626.615L673.1,-626.615C673.09,-626.614 673.081,-626.614 673.071,-626.614C672.812,-626.614 672.599,-626.827 672.599,-627.086C672.599,-627.096 672.599,-627.105 672.6,-627.115L672.6,-657.515C672.599,-657.525 672.599,-657.534 672.599,-657.544C672.599,-657.803 672.812,-658.016 673.071,-658.016C673.081,-658.016 673.09,-658.016 673.1,-658.015Z" style="fill:rgb(51,149,255);fill-rule:nonzero;"/>
        </g>
        <g id="Trazado_3" transform="matrix(1,0,0,1,172,884.502)">
            <path d="M709.2,-658.115C704.83,-658.713 700.379,-658.018 696.4,-656.115L696.1,-657.615C696.013,-657.825 695.824,-657.976 695.6,-658.015L688,-658.015C687.99,-658.016 687.981,-658.016 687.971,-658.016C687.712,-658.016 687.499,-657.803 687.499,-657.544C687.499,-657.534 687.499,-657.525 687.5,-657.515L687.5,-627.115C687.499,-627.105 687.499,-627.096 687.499,-627.086C687.499,-626.827 687.712,-626.614 687.971,-626.614C687.981,-626.614 687.99,-626.614 688,-626.615L698.5,-626.615C698.51,-626.614 698.519,-626.614 698.529,-626.614C698.788,-626.614 699.001,-626.827 699.001,-627.086C699.001,-627.096 699.001,-627.105 699,-627.115L699,-646.615C700.688,-647.412 702.533,-647.822 704.4,-647.815C704.876,-647.854 705.354,-647.786 705.8,-647.615C706.59,-647.4 707.106,-646.627 707,-645.815L707,-627.015C706.999,-627.005 706.999,-626.996 706.999,-626.986C706.999,-626.727 707.212,-626.514 707.471,-626.514C707.481,-626.514 707.49,-626.514 707.5,-626.515L718,-626.515C718.01,-626.514 718.019,-626.514 718.029,-626.514C718.288,-626.514 718.501,-626.727 718.501,-626.986C718.501,-626.996 718.501,-627.005 718.5,-627.015L718.5,-645.915C718.6,-652.915 715.4,-657.215 709.2,-658.115Z" style="fill:rgb(51,149,255);fill-rule:nonzero;"/>
        </g>
        <g id="Trazado_4" transform="matrix(1,0,0,1,172,884.502)">
            <path d="M613.1,-637.615C613.1,-637.715 613,-637.815 612.8,-637.915C612.687,-638.016 612.513,-638.016 612.4,-637.915C610.792,-637.18 609.064,-636.739 607.3,-636.615C606.997,-636.599 606.692,-636.632 606.4,-636.715C605.596,-637.087 605.112,-637.933 605.2,-638.815L605.2,-648.915L612.7,-648.915C612.946,-648.89 613.17,-649.07 613.2,-649.315L614,-657.415C614.015,-657.556 613.98,-657.698 613.9,-657.815C613.804,-657.938 613.657,-658.012 613.5,-658.015L605.3,-658.015L605.3,-665.415C605.275,-665.565 605.205,-665.705 605.1,-665.815C604.983,-665.895 604.841,-665.93 604.7,-665.915L594.9,-664.515C594.686,-664.501 594.514,-664.329 594.5,-664.115L593.9,-658.015L589.3,-658.015C589.054,-658.04 588.83,-657.86 588.8,-657.615L588,-649.515C587.985,-649.374 588.02,-649.232 588.1,-649.115C588.196,-648.992 588.343,-648.918 588.5,-648.915L593.8,-648.915L593.8,-637.615C594.094,-632.102 597.821,-627.332 603.1,-625.715C604.499,-625.32 605.946,-625.118 607.4,-625.115C610.671,-625.205 613.896,-625.918 616.9,-627.215C617.096,-627.266 617.233,-627.444 617.233,-627.646C617.233,-627.704 617.222,-627.761 617.2,-627.815L613.1,-637.615Z" style="fill:rgb(51,149,255);fill-rule:nonzero;"/>
        </g>
        <g id="Trazado_5" transform="matrix(1,0,0,1,172,884.502)">
            <path d="M569,-661.315C569.221,-662.03 569.355,-662.768 569.4,-663.515C569.576,-665.516 568.926,-667.505 567.6,-669.015C566.204,-670.518 564.251,-671.386 562.2,-671.415L561.5,-671.415C555.961,-676.456 548.735,-679.252 541.245,-679.252C532.73,-679.252 524.603,-675.638 518.9,-669.315C513.859,-663.776 511.063,-656.55 511.063,-649.06C511.063,-640.545 514.677,-632.418 521,-626.715C521.3,-626.515 521.5,-626.215 521.8,-626.015C521.873,-624.306 522.546,-622.677 523.7,-621.415C525,-619.915 527.5,-619.415 529.5,-619.515L530.2,-619.515C530.509,-619.534 530.812,-619.601 531.1,-619.715C531.55,-619.788 531.987,-619.922 532.4,-620.115C535.312,-619.196 538.347,-618.724 541.4,-618.715C546.035,-618.791 550.602,-619.848 554.8,-621.815C558.39,-620.506 562.179,-619.829 566,-619.815C566.934,-619.798 567.869,-619.832 568.8,-619.915C570.038,-620.122 570.917,-621.265 570.8,-622.515C570.707,-623.165 570.343,-623.746 569.8,-624.115C568.9,-624.815 567.3,-628.715 566.3,-631.815C572.231,-640.511 573.254,-651.686 569,-661.315ZM567.3,-662.515C567.3,-662.57 567.255,-662.615 567.2,-662.615L566.8,-663.015C566.7,-663.115 566.5,-663.215 566.4,-663.315L565.8,-663.615L565.5,-663.715C564.526,-663.828 563.542,-663.617 562.7,-663.115C568.676,-654.169 568.395,-642.366 562,-633.715C561.576,-633.141 561.429,-632.408 561.6,-631.715C562.256,-629.244 563.126,-626.835 564.2,-624.515C561.253,-624.705 558.353,-625.346 555.6,-626.415C554.987,-626.683 554.282,-626.645 553.7,-626.315C549.903,-624.432 545.737,-623.408 541.5,-623.315C537.812,-623.326 534.167,-624.109 530.8,-625.615C530.234,-625.052 529.881,-624.309 529.8,-623.515L529.8,-623.115C529.8,-622.915 529.9,-622.615 529.9,-622.415C530,-622.215 530,-622.015 530.1,-621.815C530.1,-621.715 530.2,-621.615 530.3,-621.515L529.7,-621.815L529.5,-622.115C529.378,-622.268 529.277,-622.436 529.2,-622.615C529.2,-622.715 529.1,-622.815 529.1,-622.915C528.976,-623.234 528.908,-623.573 528.9,-623.915L528.9,-625.215C529.116,-626.314 529.597,-627.343 530.3,-628.215C530.6,-628.615 531.6,-629.715 532.2,-630.415L532.7,-630.915C534.7,-632.715 536.7,-634.315 538.8,-635.915L540,-636.815L541.4,-630.915C541.567,-630.334 542.096,-629.927 542.7,-629.915C543.291,-629.902 543.807,-630.331 543.9,-630.915L543.9,-631.015L546.1,-645.515C546.195,-646.225 545.706,-646.893 545,-647.015L544.9,-647.015L530.2,-648.115C529.571,-648.109 529.01,-647.708 528.8,-647.115L528.8,-646.915C528.686,-646.371 528.984,-645.819 529.5,-645.615L534.6,-643.115L533.5,-642.215C532,-640.915 530.6,-639.715 529.3,-638.515C527.6,-636.815 524.7,-633.715 524.5,-633.415C523.91,-632.747 523.407,-632.008 523,-631.215C518.231,-635.989 515.55,-642.468 515.55,-649.215C515.55,-656.012 518.27,-662.533 523.1,-667.315C531.873,-676.041 545.775,-677.228 555.9,-670.115C555.3,-669.815 554.7,-669.515 554,-669.215C552.032,-668.201 550.128,-667.065 548.3,-665.815C546.8,-664.815 545.3,-663.715 543.7,-662.515L542.6,-661.615L541.3,-667.215C541.11,-667.74 540.65,-668.123 540.1,-668.215L540,-668.215C539.368,-668.19 538.829,-667.734 538.7,-667.115L536.5,-652.215C536.492,-651.858 536.597,-651.508 536.8,-651.215C537.034,-650.898 537.406,-650.712 537.8,-650.715L552.6,-649.715L552.7,-649.715C553.408,-649.728 553.987,-650.307 554,-651.015C554,-651.539 553.683,-652.014 553.2,-652.215L547.7,-654.915L548.8,-655.915C550.3,-657.115 551.6,-658.215 552.9,-659.215C554.396,-660.429 556.004,-661.501 557.7,-662.415C558.2,-662.715 558.6,-662.915 559,-663.115C559.2,-663.215 559.3,-663.315 559.5,-663.415L561.3,-664.315L562.2,-664.615L563.2,-664.815L564.7,-664.815C564.8,-664.815 564.9,-664.815 564.9,-664.715L565.1,-664.615C565.385,-664.522 565.655,-664.388 565.9,-664.215C566.124,-664.079 566.326,-663.91 566.5,-663.715C566.6,-663.515 566.8,-663.415 566.9,-663.215C567,-663.115 567,-662.915 567.1,-662.815L567.1,-662.415L567.3,-662.515Z" style="fill:rgb(51,149,255);fill-rule:nonzero;"/>
        </g>
        <g id="Trazado_6" transform="matrix(1,0,0,1,172,884.502)">
            <path d="M669.4,-658.015L657.9,-658.015C657.69,-658.019 657.495,-657.902 657.4,-657.715L652.2,-644.415L647.5,-657.715C647.405,-657.902 647.21,-658.019 647,-658.015L638.6,-658.015C638.39,-658.019 638.195,-657.902 638.1,-657.715L633.4,-644.415L628.2,-657.715C628.105,-657.902 627.91,-658.019 627.7,-658.015L616.2,-658.015C616.043,-658.012 615.896,-657.938 615.8,-657.815C615.698,-657.664 615.698,-657.466 615.8,-657.315L627.6,-626.915C627.695,-626.728 627.89,-626.611 628.1,-626.615L637.8,-626.615C638.01,-626.611 638.205,-626.728 638.3,-626.915L642.8,-639.615L647.3,-626.915C647.395,-626.728 647.59,-626.611 647.8,-626.615L657.5,-626.615C657.71,-626.611 657.905,-626.728 658,-626.915L669.8,-657.315C669.9,-657.515 669.8,-657.615 669.8,-657.815C669.704,-657.938 669.557,-658.012 669.4,-658.015Z" style="fill:rgb(51,149,255);fill-rule:nonzero;"/>
        </g>
        <g id="Trazado_7" transform="matrix(1,0,0,1,172,884.502)">
            <path d="M724.7,-670.215L732,-671.015L732,-657.215C733.174,-657.995 734.453,-658.601 735.8,-659.015C737.102,-659.402 738.444,-659.636 739.8,-659.715C741.719,-659.698 743.617,-659.325 745.4,-658.615C746.939,-657.834 748.3,-656.745 749.4,-655.415C750.559,-653.88 751.439,-652.154 752,-650.315C752.6,-648.201 752.903,-646.013 752.9,-643.815C752.903,-641.518 752.6,-639.232 752,-637.015C751.512,-635.007 750.591,-633.129 749.3,-631.515C748.114,-629.943 746.572,-628.675 744.8,-627.815C742.798,-626.888 740.605,-626.443 738.4,-626.515C737.034,-626.486 735.675,-626.724 734.4,-627.215C733.2,-627.715 731.7,-628.215 730.2,-628.915L730.2,-628.815L729,-626.815L724.7,-626.815L724.7,-670.215ZM738.7,-653.015C737.947,-653.037 737.197,-652.901 736.5,-652.615C735.823,-652.418 735.181,-652.114 734.6,-651.715C734.078,-651.417 733.576,-651.083 733.1,-650.715C732.7,-650.315 732.4,-650.115 732.1,-649.815L732.1,-634.515C732.858,-634.036 733.662,-633.634 734.5,-633.315C735.632,-632.802 736.858,-632.53 738.1,-632.515C739.199,-632.505 740.277,-632.818 741.2,-633.415C742.135,-634.034 742.921,-634.854 743.5,-635.815C744.128,-636.875 744.599,-638.02 744.9,-639.215C745.22,-640.525 745.388,-641.867 745.4,-643.215C745.478,-645.647 744.927,-648.059 743.8,-650.215C742.683,-651.947 740.762,-653.002 738.7,-653.015Z" style="fill:rgb(51,149,255);fill-rule:nonzero;"/>
        </g>
        <g id="Trazado_8" transform="matrix(1,0,0,1,172,884.502)">
            <path d="M784,-633.315C783.992,-633.02 784.1,-632.732 784.3,-632.515C784.517,-632.315 784.805,-632.207 785.1,-632.215L785.8,-632.215C786.103,-632.204 786.407,-632.238 786.7,-632.315L787.7,-632.415L787.7,-628.215C787.025,-627.561 786.248,-627.02 785.4,-626.615C784.674,-626.296 783.892,-626.126 783.1,-626.115C780.823,-626.001 778.702,-627.321 777.8,-629.415C776.591,-628.586 775.321,-627.851 774,-627.215C772.474,-626.483 770.791,-626.14 769.1,-626.215C767.637,-626.195 766.181,-626.432 764.8,-626.915C763.509,-627.32 762.34,-628.042 761.4,-629.015C760.403,-630.071 759.652,-631.335 759.2,-632.715C758.683,-634.435 758.414,-636.219 758.4,-638.015L758.4,-658.115L765.8,-659.015L765.8,-638.215C765.8,-636.015 766.1,-634.515 766.8,-633.815C767.742,-633.012 768.966,-632.616 770.2,-632.715C771.41,-632.73 772.603,-633.003 773.7,-633.515C774.749,-634.054 775.724,-634.726 776.6,-635.515L776.6,-658.115L784,-659.015L784,-633.315Z" style="fill:rgb(51,149,255);fill-rule:nonzero;"/>
        </g>
        <g id="Trazado_9" transform="matrix(1,0,0,1,172,884.502)">
            <path d="M793,-634.015C794.575,-633.521 796.178,-633.121 797.8,-632.815C799.515,-632.495 801.255,-632.328 803,-632.315C804.162,-632.305 805.304,-632.616 806.3,-633.215C807.182,-633.673 807.699,-634.626 807.6,-635.615C807.621,-636.384 807.289,-637.121 806.7,-637.615C806.094,-638.109 805.421,-638.513 804.7,-638.815L798.8,-640.615C797.508,-641.011 796.292,-641.619 795.2,-642.415C794.351,-642.982 793.606,-643.693 793,-644.515C792.474,-645.269 792.101,-646.118 791.9,-647.015C791.696,-647.968 791.596,-648.94 791.6,-649.915C791.614,-651.287 791.886,-652.643 792.4,-653.915C792.971,-655.079 793.79,-656.103 794.8,-656.915C795.863,-657.779 797.087,-658.425 798.4,-658.815C799.852,-659.291 801.372,-659.527 802.9,-659.515C804.073,-659.519 805.245,-659.418 806.4,-659.215C807.5,-659.015 808.6,-658.815 809.7,-658.515C810.7,-658.215 811.5,-657.915 812.3,-657.615C813.1,-657.315 813.5,-657.115 813.8,-657.015L811.8,-651.615C811.222,-651.854 810.618,-652.021 810,-652.115C809.257,-652.234 808.522,-652.401 807.8,-652.615C807.009,-652.797 806.207,-652.93 805.4,-653.015C804.603,-653.098 803.801,-653.132 803,-653.115C801.994,-653.124 801.012,-652.808 800.2,-652.215C799.584,-651.732 799.216,-650.997 799.2,-650.215C799.228,-649.679 799.401,-649.161 799.7,-648.715C800.131,-648.262 800.639,-647.89 801.2,-647.615C801.992,-647.212 802.832,-646.909 803.7,-646.715C804.7,-646.415 805.8,-646.115 807.1,-645.715C808.481,-645.357 809.797,-644.783 811,-644.015C811.879,-643.449 812.657,-642.739 813.3,-641.915C813.931,-641.087 814.375,-640.131 814.6,-639.115C814.881,-637.936 815.015,-636.727 815,-635.515C815.011,-634.13 814.703,-632.762 814.1,-631.515C813.495,-630.317 812.643,-629.26 811.6,-628.415C810.433,-627.515 809.111,-626.837 807.7,-626.415C806.112,-625.931 804.46,-625.695 802.8,-625.715C800.713,-625.695 798.63,-625.93 796.6,-626.415C794.629,-626.904 792.717,-627.609 790.9,-628.515L793,-634.015Z" style="fill:rgb(51,149,255);fill-rule:nonzero;"/>
        </g>
        <g id="Trazado_10" transform="matrix(1,0,0,1,172,884.502)">
            <path d="M824.6,-662.215C823.434,-662.089 822.277,-662.537 821.5,-663.415C820.83,-664.308 820.478,-665.399 820.5,-666.515C820.528,-667.5 820.879,-668.449 821.5,-669.215C822.277,-670.093 823.434,-670.541 824.6,-670.415C825.669,-670.416 826.701,-670.025 827.5,-669.315C828.291,-668.603 828.73,-667.579 828.7,-666.515C828.722,-665.43 828.368,-664.37 827.7,-663.515C826.935,-662.611 825.781,-662.127 824.6,-662.215ZM828.2,-633.315C828.208,-632.992 828.312,-632.678 828.5,-632.415C828.771,-632.169 829.139,-632.059 829.5,-632.115C829.738,-632.099 829.976,-632.133 830.2,-632.215C830.713,-632.236 831.219,-632.338 831.7,-632.515L831.7,-628.215C831.043,-627.539 830.262,-626.995 829.4,-626.615C828.636,-626.306 827.823,-626.137 827,-626.115C826.215,-626.101 825.434,-626.237 824.7,-626.515C823.986,-626.72 823.334,-627.098 822.8,-627.615C822.224,-628.138 821.779,-628.789 821.5,-629.515C821.189,-630.382 821.021,-631.294 821,-632.215L821,-658.015L828.2,-658.915L828.2,-633.315Z" style="fill:rgb(51,149,255);fill-rule:nonzero;"/>
        </g>
        <g id="Trazado_11" transform="matrix(1,0,0,1,172,884.502)">
            <path d="M852.4,-659.615C854.158,-659.635 855.91,-659.399 857.6,-658.915C858.879,-658.495 860.021,-657.735 860.9,-656.715C861.761,-655.677 862.346,-654.439 862.6,-653.115C862.92,-651.467 863.087,-649.793 863.1,-648.115L863.1,-626.415L855.9,-626.415L855.9,-647.215C856.009,-648.833 855.699,-650.452 855,-651.915C854.179,-652.937 852.909,-653.497 851.6,-653.415C850.353,-653.305 849.152,-652.893 848.1,-652.215C846.779,-651.411 845.597,-650.398 844.6,-649.215L844.6,-626.515L837.3,-626.515L837.3,-652.515C837.304,-652.55 837.306,-652.585 837.306,-652.62C837.306,-653.078 836.956,-653.467 836.5,-653.515L836.4,-653.515C835.737,-653.615 835.063,-653.615 834.4,-653.515L834.4,-658.615C835.152,-658.894 835.92,-659.128 836.7,-659.315C837.293,-659.431 837.896,-659.498 838.5,-659.515C839.662,-659.525 840.804,-659.214 841.8,-658.615C842.662,-658.087 843.356,-657.323 843.8,-656.415C845.007,-657.302 846.316,-658.041 847.7,-658.615C849.177,-659.28 850.78,-659.62 852.4,-659.615Z" style="fill:rgb(51,149,255);fill-rule:nonzero;"/>
        </g>
        <g id="Trazado_12" transform="matrix(1,0,0,1,172,884.502)">
            <path d="M875.2,-641.815C875.204,-640.59 875.407,-639.375 875.8,-638.215C876.132,-637.15 876.677,-636.164 877.4,-635.315C878.145,-634.486 879.068,-633.836 880.1,-633.415C881.326,-632.877 882.663,-632.637 884,-632.715C885.59,-632.752 887.169,-632.987 888.7,-633.415C890.571,-633.871 892.383,-634.542 894.1,-635.415L895.4,-630.115C893.702,-628.884 891.854,-627.876 889.9,-627.115C887.612,-626.353 885.212,-625.981 882.8,-626.015C880.53,-625.942 878.273,-626.387 876.2,-627.315C874.381,-628.192 872.751,-629.414 871.4,-630.915C870.109,-632.484 869.126,-634.282 868.5,-636.215C867.819,-638.314 867.482,-640.509 867.5,-642.715C867.474,-644.955 867.812,-647.184 868.5,-649.315C869.109,-651.235 870.057,-653.03 871.3,-654.615C872.517,-656.106 874.055,-657.303 875.8,-658.115C877.732,-659.041 879.859,-659.487 882,-659.415C883.73,-659.401 885.449,-659.132 887.1,-658.615C888.667,-658.101 890.101,-657.248 891.3,-656.115C892.587,-654.926 893.58,-653.454 894.2,-651.815C895.015,-649.889 895.391,-647.805 895.3,-645.715L895.3,-641.615L875.2,-641.615L875.2,-641.815ZM888.4,-647.515C888.305,-649.092 887.71,-650.599 886.7,-651.815C885.544,-653.115 883.832,-653.785 882.1,-653.615C881.179,-653.594 880.267,-653.426 879.4,-653.115C878.668,-652.799 878.018,-652.32 877.5,-651.715C876.976,-651.112 876.538,-650.439 876.2,-649.715C875.877,-649.013 875.642,-648.274 875.5,-647.515L888.4,-647.515Z" style="fill:rgb(51,149,255);fill-rule:nonzero;"/>
        </g>
        <g id="Trazado_13" transform="matrix(1,0,0,1,172,884.502)">
            <path d="M901.5,-634.015C903.075,-633.521 904.678,-633.121 906.3,-632.815C908.015,-632.495 909.755,-632.328 911.5,-632.315C912.662,-632.305 913.804,-632.616 914.8,-633.215C915.682,-633.673 916.199,-634.626 916.1,-635.615C916.121,-636.384 915.789,-637.121 915.2,-637.615C914.594,-638.109 913.921,-638.513 913.2,-638.815L907.3,-640.615C906.008,-641.011 904.792,-641.619 903.7,-642.415C902.851,-642.982 902.106,-643.693 901.5,-644.515C900.974,-645.269 900.601,-646.118 900.4,-647.015C900.196,-647.968 900.096,-648.94 900.1,-649.915C900.114,-651.287 900.386,-652.643 900.9,-653.915C901.471,-655.079 902.29,-656.103 903.3,-656.915C904.363,-657.779 905.587,-658.425 906.9,-658.815C908.352,-659.291 909.872,-659.527 911.4,-659.515C912.606,-659.514 913.81,-659.414 915,-659.215C916.1,-659.015 917.2,-658.815 918.3,-658.515C919.3,-658.215 920.1,-657.915 920.9,-657.615C921.7,-657.315 922.1,-657.115 922.4,-657.015L920.4,-651.615C919.822,-651.854 919.218,-652.021 918.6,-652.115C917.857,-652.234 917.122,-652.401 916.4,-652.615C915.609,-652.797 914.807,-652.93 914,-653.015C913.203,-653.098 912.401,-653.132 911.6,-653.115C910.594,-653.124 909.612,-652.808 908.8,-652.215C908.184,-651.732 907.816,-650.997 907.8,-650.215C907.828,-649.679 908.001,-649.161 908.3,-648.715C908.731,-648.262 909.239,-647.89 909.8,-647.615C910.592,-647.212 911.432,-646.909 912.3,-646.715C913.3,-646.415 914.4,-646.115 915.6,-645.715C916.981,-645.357 918.297,-644.783 919.5,-644.015C920.461,-643.483 921.31,-642.77 922,-641.915C922.631,-641.087 923.075,-640.131 923.3,-639.115C923.581,-637.936 923.715,-636.727 923.7,-635.515C923.711,-634.13 923.403,-632.762 922.8,-631.515C922.195,-630.317 921.343,-629.26 920.3,-628.415C919.133,-627.515 917.811,-626.838 916.4,-626.415C914.812,-625.931 913.16,-625.695 911.5,-625.715C909.413,-625.695 907.33,-625.93 905.3,-626.415C903.329,-626.904 901.417,-627.609 899.6,-628.515L901.5,-634.015Z" style="fill:rgb(51,149,255);fill-rule:nonzero;"/>
        </g>
        <g id="Trazado_14" transform="matrix(1,0,0,1,172,884.502)">
            <path d="M929.3,-634.015C930.875,-633.521 932.478,-633.121 934.1,-632.815C935.815,-632.495 937.555,-632.328 939.3,-632.315C940.462,-632.305 941.604,-632.616 942.6,-633.215C943.482,-633.673 943.999,-634.626 943.9,-635.615C943.921,-636.384 943.589,-637.121 943,-637.615C942.394,-638.109 941.721,-638.513 941,-638.815L935.1,-640.615C933.808,-641.011 932.592,-641.619 931.5,-642.415C930.651,-642.982 929.906,-643.693 929.3,-644.515C928.774,-645.269 928.401,-646.118 928.2,-647.015C927.996,-647.968 927.896,-648.94 927.9,-649.915C927.914,-651.287 928.186,-652.643 928.7,-653.915C929.271,-655.079 930.09,-656.103 931.1,-656.915C932.163,-657.779 933.387,-658.425 934.7,-658.815C936.152,-659.291 937.672,-659.527 939.2,-659.515C940.373,-659.519 941.545,-659.418 942.7,-659.215C943.8,-659.015 944.9,-658.815 946,-658.515C947,-658.215 947.8,-657.915 948.6,-657.615C949.4,-657.315 949.8,-657.115 950.1,-657.015L948.1,-651.615C947.522,-651.854 946.918,-652.021 946.3,-652.115C945.557,-652.234 944.822,-652.401 944.1,-652.615C943.309,-652.797 942.507,-652.93 941.7,-653.015C940.903,-653.098 940.101,-653.132 939.3,-653.115C938.294,-653.124 937.312,-652.808 936.5,-652.215C935.884,-651.732 935.516,-650.997 935.5,-650.215C935.528,-649.679 935.701,-649.161 936,-648.715C936.431,-648.262 936.939,-647.89 937.5,-647.615C938.292,-647.212 939.132,-646.909 940,-646.715C941,-646.415 942.1,-646.115 943.4,-645.715C944.781,-645.356 946.097,-644.783 947.3,-644.015C948.261,-643.483 949.11,-642.77 949.8,-641.915C950.431,-641.087 950.875,-640.131 951.1,-639.115C951.381,-637.936 951.515,-636.727 951.5,-635.515C951.511,-634.13 951.203,-632.762 950.6,-631.515C949.995,-630.317 949.143,-629.26 948.1,-628.415C946.933,-627.515 945.611,-626.837 944.2,-626.415C942.612,-625.931 940.96,-625.695 939.3,-625.715C937.213,-625.695 935.13,-625.93 933.1,-626.415C931.129,-626.904 929.217,-627.609 927.4,-628.515L929.3,-634.015Z" style="fill:rgb(51,149,255);fill-rule:nonzero;"/>
        </g>
    </g>
</svg>
